# xmcd
#
# Track frame offsets: 
#        150
#        9700
#        26075
#        44250
#        58727
#        73399
#        99194
#        117819
#        137201
#        154183
#        171660
#        187397
#        207799
#
# Disc length: 3171 seconds
#
# Revision: 0
# Processed by: cddbd v1.5.2PL0 Copyright (c) Steve Scherf et al.
# Submitted via: ExactAudioCopy v1.0b1
#
DISCID=c40c610d
DTITLE=Fred Chapellier - Electric Fingers
DYEAR=2012
DGENRE=Blues
TTITLE0=Hot Rod Cadillac Automobile
TTITLE1=He's Walking
TTITLE2=Something About You
TTITLE3=Yield Not To Temptation
TTITLE4=Cold As Ice
TTITLE5=Marie Laveaux
TTITLE6=Sweet Soul Music
TTITLE7=Gary's Gone
TTITLE8=Living In A Dream
TTITLE9=I Found You
TTITLE10=Memphis Connection Part 2
TTITLE11=I Wouldn't Treat A Dog
TTITLE12=Blues For Roy
EXTD=
EXTT0=
EXTT1=
EXTT2=
EXTT3=
EXTT4=
EXTT5=
EXTT6=
EXTT7=
EXTT8=
EXTT9=
EXTT10=
EXTT11=
EXTT12=
PLAYORDER=
